<?xml version="1.0" encoding="UTF-8" standalone="no"?>
<!-- Generator: Adobe Illustrator 17.0.0, SVG Export Plug-In . SVG Version: 6.00 Build 0)  -->

<svg
   xmlns:dc="http://purl.org/dc/elements/1.1/"
   xmlns:cc="http://creativecommons.org/ns#"
   xmlns:rdf="http://www.w3.org/1999/02/22-rdf-syntax-ns#"
   xmlns:svg="http://www.w3.org/2000/svg"
   xmlns="http://www.w3.org/2000/svg"
   xmlns:sodipodi="http://sodipodi.sourceforge.net/DTD/sodipodi-0.dtd"
   xmlns:inkscape="http://www.inkscape.org/namespaces/inkscape"
   version="1.1"
   id="Layer_1"
   x="0px"
   y="0px"
   width="931.487px"
   height="669.8px"
   viewBox="32.073 45.142 931.487 669.8"
   enable-background="new 32.073 45.142 931.487 669.8"
   xml:space="preserve"
   sodipodi:docname="Clothes_hanger_icon_3.svg"
   inkscape:version="0.92.4 (5da689c313, 2019-01-14)"><metadata
   id="metadata9"><rdf:RDF><cc:Work
       rdf:about=""><dc:format>image/svg+xml</dc:format><dc:type
         rdf:resource="http://purl.org/dc/dcmitype/StillImage" /></cc:Work></rdf:RDF></metadata><defs
   id="defs7" /><sodipodi:namedview
   pagecolor="#ffffff"
   bordercolor="#666666"
   borderopacity="1"
   objecttolerance="10"
   gridtolerance="10"
   guidetolerance="10"
   inkscape:pageopacity="0"
   inkscape:pageshadow="2"
   inkscape:window-width="640"
   inkscape:window-height="480"
   id="namedview5"
   showgrid="false"
   inkscape:zoom="0.30488885"
   inkscape:cx="465.7435"
   inkscape:cy="334.89999"
   inkscape:window-x="0"
   inkscape:window-y="0"
   inkscape:window-maximized="0"
   inkscape:current-layer="Layer_1" />
<path
   d="M 73.187225,547.562 465.63922,314.442 v -39.68 c 0,-45.02 48.783,-64.56 48.783,-64.56 31.575,-15.5 28.753,-48.9 28.753,-48.9 0,-39.2 -34.893,-51.78 -50.432,-51.78 -26.111,0 -51.724,14.58 -54.427,47.92 -4.252,52.28 -63.09,39 -63.09,-3 0,-39.68 35.967,-109.3 117.974,-109.3 88.684,0 114.139,87.26 114.139,114.84 0,20.82 -3.259,40.04 -16.016,61.96 -21.699,37.28 -65.077,43.14 -65.077,67.82 v 24.68 l 396.426,234 c 39.106,23.24 46.18,72.7 37.695,102.72 -8.227,29.1 -37.238,63.78 -89.459,63.78 h -0.119 c 0,0 -673.15,0 -741.029,0 -58.440995,0 -85.107995,-33.72 -93.333995,-62.82 -8.485,-30.02 -8.485,-76.48 36.761,-104.56 z m 55.638995,101.94 h 740.91 c 24.123,0.94 39.027,-33.06 15.181,-48.06 l -386.531,-227.16 -384.464,226.16 c -23.844995,17 -10.929,49 14.904,49.06 z"
   id="path2"
   inkscape:connector-curvature="0" />
</svg>