<?xml version="1.0" ?><svg height="612" id="svg1754" version="1.0" width="612" xmlns="http://www.w3.org/2000/svg" xmlns:cc="http://creativecommons.org/ns#" xmlns:dc="http://purl.org/dc/elements/1.1/" xmlns:inkscape="http://www.inkscape.org/namespaces/inkscape" xmlns:rdf="http://www.w3.org/1999/02/22-rdf-syntax-ns#" xmlns:sodipodi="http://sodipodi.sourceforge.net/DTD/sodipodi-0.dtd" xmlns:svg="http://www.w3.org/2000/svg"><defs id="defs1756"><marker id="ArrowEnd" markerHeight="3" markerUnits="strokeWidth" markerWidth="4" orient="auto" refX="0" refY="5" viewBox="0 0 10 10"><path d="M 0,0 L 10,5 L 0,10 L 0,0 z" id="path1759"/></marker><marker id="ArrowStart" markerHeight="3" markerUnits="strokeWidth" markerWidth="4" orient="auto" refX="10" refY="5" viewBox="0 0 10 10"><path d="M 10,0 L 0,5 L 10,10 L 10,0 z" id="path1762"/></marker></defs><g id="g6583" transform="translate(-8.19e-2,-0.5853944)"><g id="g1764"><path d="M 82.4318,17.9239 C 41.0968,17.9239 17.8608,39.2949 17.8608,82.9599 L 17.8608,533.082 C 17.8608,573.925 38.7518,595.31 80.0528,595.31 L 532.077,595.31 C 573.38,595.31 594.303,574.99 594.303,533.082 L 594.303,82.9599 C 594.303,40.3599 573.38,17.9239 530.78,17.9239 C 530.78,17.9239 82.2888,17.7819 82.4318,17.9239 z" id="path1766" style="fill:#000000;stroke:#ffffff;stroke-width:3.40799999"/></g><g id="g1768"><path d="M 89.0703,370.245 C 69.3813,381.862 65.8283,406.594 70.0983,421.599 C 74.2403,436.151 88.8403,453.499 115.113,453.499 L 115.172,453.499 C 115.172,453.499 453.932,453.499 488.094,453.499 C 517.51,453.499 530.924,436.636 535.065,422.084 C 539.335,407.079 539.335,383.844 516.561,369.808 L 319.07,253.245 L 319.07,233.399 C 319.07,210.891 294.517,201.12 294.517,201.12 C 278.624,193.375 280.046,176.678 280.046,176.678 C 280.046,157.075 297.602,150.782 305.427,150.782 C 318.57,150.782 331.46,158.071 332.819,174.741 C 334.956,200.879 364.57,194.245 364.57,173.245 C 364.57,153.401 346.47,118.594 305.191,118.594 C 260.57,118.594 247.755,162.222 247.755,176.017 C 247.755,186.422 249.4,196.03 255.82,206.995 C 266.732,225.631 288.57,228.559 288.57,240.901 L 288.57,253.245 L 89.0703,370.245 z" id="path1770" style="fill:#ffffff;stroke:none"/><path d="M 302.582,283.167 L 496.07,396.245 C 508.07,404.745 501.57,420.745 488.57,420.773 L 115.705,420.773 C 103.57,421.245 96.0703,404.245 108.07,396.745 L 302.582,283.167 z" id="path1772" style="fill:#000000;stroke:none"/></g></g></svg>