<?xml version="1.0" encoding="UTF-8" standalone="no"?>
<!-- Created with Inkscape (http://www.inkscape.org/) -->

<svg
   xmlns:dc="http://purl.org/dc/elements/1.1/"
   xmlns:cc="http://creativecommons.org/ns#"
   xmlns:rdf="http://www.w3.org/1999/02/22-rdf-syntax-ns#"
   xmlns:svg="http://www.w3.org/2000/svg"
   xmlns="http://www.w3.org/2000/svg"
   xmlns:sodipodi="http://sodipodi.sourceforge.net/DTD/sodipodi-0.dtd"
   xmlns:inkscape="http://www.inkscape.org/namespaces/inkscape"
   width="210mm"
   height="297mm"
   viewBox="0 0 210 297"
   version="1.1"
   id="svg3767"
   inkscape:version="0.92.4 (5da689c313, 2019-01-14)"
   sodipodi:docname="coat-icon.svg">
  <defs
     id="defs3761" />
  <sodipodi:namedview
     id="base"
     pagecolor="#ffffff"
     bordercolor="#666666"
     borderopacity="1.0"
     inkscape:pageopacity="0.0"
     inkscape:pageshadow="2"
     inkscape:zoom="0.35"
     inkscape:cx="-77.142857"
     inkscape:cy="560"
     inkscape:document-units="mm"
     inkscape:current-layer="layer1"
     showgrid="false"
     inkscape:window-width="1366"
     inkscape:window-height="745"
     inkscape:window-x="-8"
     inkscape:window-y="-8"
     inkscape:window-maximized="1" />
  <metadata
     id="metadata3764">
    <rdf:RDF>
      <cc:Work
         rdf:about="">
        <dc:format>image/svg+xml</dc:format>
        <dc:type
           rdf:resource="http://purl.org/dc/dcmitype/StillImage" />
        <dc:title />
      </cc:Work>
    </rdf:RDF>
  </metadata>
  <g
     inkscape:label="Layer 1"
     inkscape:groupmode="layer"
     id="layer1">
    <path
       style="stroke-width:0.3315199"
       inkscape:connector-curvature="0"
       id="path3753"
       d="m 104.06601,225.07868 c -38.699009,0 -77.430385,-0.0339 -116.129462,0.0339 -10.143168,0.0339 -18.089723,-3.98071 -22.676748,-13.74539 -6.169893,-13.201 0.226117,-28.54546 13.761107,-33.24068 30.3325695,-10.51318 60.729754,-20.95828 91.094635,-31.43746 8.108085,-2.78989 16.183817,-5.64784 24.324176,-8.30165 2.196587,-0.71449 2.939564,-1.76921 2.939564,-4.18488 0,-6.66854 2.422714,-12.35045 7.009768,-17.0456 2.81035,-2.89198 5.62072,-5.78396 8.10805,-8.94812 4.2317,-5.34165 4.65165,-12.112286 1.38903,-17.760133 -3.10108,-5.375661 -9.30326,-8.471757 -14.859395,-7.383025 -6.686705,1.3269 -11.17683,6.192212 -12.242843,13.269045 -0.129232,0.850587 -0.258411,1.735187 -0.355327,2.585764 -0.613739,4.831309 -3.973246,8.029489 -8.075731,7.689259 -4.328621,-0.34024 -7.429715,-4.1168 -7.365101,-8.94811 0.226111,-16.024925 11.435285,-28.749532 27.457559,-31.063098 13.696478,-1.973338 28.135958,8.23357 31.915388,22.931539 2.97192,11.567919 0.58148,22.013029 -7.23585,30.859069 l -7.00976,7.45108 c -1.03371,1.15678 -2.06742,2.48369 -2.64887,3.91267 -1.71207,4.2529 -0.90449,5.92005 3.23032,7.34903 l 111.67169,38.41222 c 10.82152,3.70851 17.44363,12.79272 17.21752,23.78222 -0.22612,10.92144 -7.13899,20.24382 -17.24984,22.8636 -2.71346,0.7145 -5.65304,0.81657 -8.46341,0.81657 -38.63445,0.10207 -77.23662,0.10207 -115.80647,0.10207 z m -0.12924,-16.56928 h 116.0972 c 1.19522,0 2.39043,0.0681 3.55332,-0.0682 3.29494,-0.44228 5.36234,-2.38164 6.1053,-5.81796 0.96911,-4.45704 -1.13062,-7.58719 -6.46061,-9.42443 -38.24684,-13.20104 -76.46135,-26.29997 -114.67587,-39.53498 -2.97188,-1.02071 -5.55611,-1.08875 -8.560316,-0.0339 -25.260937,8.81202 -50.586538,17.41989 -75.879845,26.12984 -13.147341,4.52509 -26.3269938,9.05017 -39.44203,13.64331 -4.619351,1.59909 -6.783645,5.10348 -5.911469,9.2203 0.77528,3.84464 3.779456,5.85199 8.721834,5.85199 38.795973,0.034 77.624267,0.034 116.452486,0.034 z" />
  </g>
</svg>
