<?xml version="1.0" encoding="UTF-8" standalone="no"?>
<!-- Created with Inkscape (http://www.inkscape.org/) -->

<svg
   xmlns:dc="http://purl.org/dc/elements/1.1/"
   xmlns:cc="http://creativecommons.org/ns#"
   xmlns:rdf="http://www.w3.org/1999/02/22-rdf-syntax-ns#"
   xmlns:svg="http://www.w3.org/2000/svg"
   xmlns="http://www.w3.org/2000/svg"
   xmlns:sodipodi="http://sodipodi.sourceforge.net/DTD/sodipodi-0.dtd"
   xmlns:inkscape="http://www.inkscape.org/namespaces/inkscape"
   width="210mm"
   height="297mm"
   viewBox="0 0 210 297"
   version="1.1"
   id="svg3767"
   inkscape:version="0.92.4 (5da689c313, 2019-01-14)"
   sodipodi:docname="hanger-icon.svg">
  <defs
     id="defs3761" />
  <sodipodi:namedview
     id="base"
     pagecolor="#ffffff"
     bordercolor="#666666"
     borderopacity="1.0"
     inkscape:pageopacity="0.0"
     inkscape:pageshadow="2"
     inkscape:zoom="0.35"
     inkscape:cx="400"
     inkscape:cy="560"
     inkscape:document-units="mm"
     inkscape:current-layer="layer1"
     showgrid="false"
     inkscape:window-width="1366"
     inkscape:window-height="745"
     inkscape:window-x="-8"
     inkscape:window-y="-8"
     inkscape:window-maximized="1" />
  <metadata
     id="metadata3764">
    <rdf:RDF>
      <cc:Work
         rdf:about="">
        <dc:format>image/svg+xml</dc:format>
        <dc:type
           rdf:resource="http://purl.org/dc/dcmitype/StillImage" />
        <dc:title></dc:title>
      </cc:Work>
    </rdf:RDF>
  </metadata>
  <g
     inkscape:label="Layer 1"
     inkscape:groupmode="layer"
     id="layer1">
    <path
       style="stroke-width:0.28301612"
       inkscape:connector-curvature="0"
       id="path3753"
       d="m 106.43643,200.21294 c -32.90383,0 -65.835134,-0.0292 -98.7389726,0.0291 -8.62421196,0.0292 -15.380761,-3.41207 -19.2808824,-11.78187 -5.245939,-11.31524 0.192259,-24.46776 11.70036484,-28.49225 C 25.907174,150.95652 51.752345,142.00346 77.57005,133.02126 c 6.893875,-2.39136 13.760283,-4.84106 20.681632,-7.11577 1.867658,-0.61243 2.499378,-1.51648 2.499378,-3.58706 0,-5.71595 2.05991,-10.58617 5.96003,-14.61066 2.38952,-2.47887 4.77901,-4.95771 6.89387,-7.66987 3.59801,-4.578598 3.95506,-10.382039 1.18103,-15.223102 -2.63669,-4.607753 -7.9101,-7.261586 -12.63419,-6.328376 -5.68539,1.137357 -9.503111,5.307667 -10.409479,11.373585 -0.109857,0.729075 -0.219731,1.487314 -0.302126,2.216378 -0.521848,4.141185 -3.37827,6.8825 -6.86641,6.59087 -3.680393,-0.291619 -6.317095,-3.528716 -6.262165,-7.669863 0.192255,-13.735786 9.722839,-24.642754 23.34581,-26.625839 11.64541,-1.691454 23.92257,7.05745 27.13603,19.655872 2.52685,9.915434 0.49439,18.868485 -6.15229,26.450865 l -5.96004,6.3867 c -0.87891,0.99153 -1.75781,2.12888 -2.2522,3.35374 -1.45567,3.64538 -0.76904,5.07435 2.74658,6.29921 l 94.94872,32.92504 c 9.20098,3.17876 14.83144,10.9653 14.63918,20.38495 -0.19225,9.36133 -6.0699,17.352 -14.66664,19.59754 -2.30715,0.61243 -4.80648,0.69992 -7.196,0.69992 -32.84891,0.0875 -65.67036,0.0875 -98.46434,0.0875 z m -0.10987,-14.20238 h 98.71149 c 1.01625,0 2.03245,0.0584 3.02123,-0.0584 2.80151,-0.37913 4.55931,-2.0414 5.19101,-4.98687 0.82397,-3.82038 -0.96131,-6.50336 -5.49311,-8.07816 -32.51935,-11.31526 -65.01119,-22.54302 -97.50304,-33.88743 -2.52683,-0.87488 -4.72411,-0.93322 -7.2784,-0.0291 -21.478129,7.55322 -43.011189,14.93144 -64.516786,22.39718 -11.178517,3.87869 -22.384499,7.75737 -33.535549,11.69439 -3.92758746,1.37064 -5.76778496,4.37444 -5.02621196,7.90316 0.6591759,3.29543 3.21347906,5.01604 7.41572446,5.01604 32.9862325,0.0293 65.9999365,0.0293 99.0136425,0.0293 z" />
  </g>
</svg>
