<?xml version="1.0" encoding="UTF-8" standalone="no"?>
<!-- Created with Inkscape (http://www.inkscape.org/) -->

<svg
   xmlns:dc="http://purl.org/dc/elements/1.1/"
   xmlns:cc="http://creativecommons.org/ns#"
   xmlns:rdf="http://www.w3.org/1999/02/22-rdf-syntax-ns#"
   xmlns:svg="http://www.w3.org/2000/svg"
   xmlns="http://www.w3.org/2000/svg"
   xmlns:sodipodi="http://sodipodi.sourceforge.net/DTD/sodipodi-0.dtd"
   xmlns:inkscape="http://www.inkscape.org/namespaces/inkscape"
   width="1920px"
   height="1080px"
   viewBox="0 0 1920 1080"
   version="1.1"
   id="SVGRoot"
   inkscape:version="0.92.4 (5da689c313, 2019-01-14)"
   sodipodi:docname="rack-logo-3.svg">
  <defs
     id="defs138">
    <inkscape:path-effect
       effect="spiro"
       id="path-effect4703"
       is_visible="true" />
    <inkscape:path-effect
       effect="spiro"
       id="path-effect4699"
       is_visible="true" />
  </defs>
  <sodipodi:namedview
     id="base"
     pagecolor="#ffffff"
     bordercolor="#666666"
     borderopacity="1.0"
     inkscape:pageopacity="0.0"
     inkscape:pageshadow="2"
     inkscape:zoom="5.2902971"
     inkscape:cx="814.25135"
     inkscape:cy="693.97711"
     inkscape:document-units="px"
     inkscape:current-layer="layer2"
     showgrid="false"
     inkscape:window-width="1366"
     inkscape:window-height="745"
     inkscape:window-x="-8"
     inkscape:window-y="1072"
     inkscape:window-maximized="1"
     inkscape:snap-intersection-paths="false"
     inkscape:object-paths="true"
     inkscape:object-nodes="false" />
  <metadata
     id="metadata141">
    <rdf:RDF>
      <cc:Work
         rdf:about="">
        <dc:format>image/svg+xml</dc:format>
        <dc:type
           rdf:resource="http://purl.org/dc/dcmitype/StillImage" />
        <dc:title></dc:title>
      </cc:Work>
    </rdf:RDF>
  </metadata>
  <g
     inkscape:label="Layer 1"
     inkscape:groupmode="layer"
     id="layer1" />
  <g
     inkscape:groupmode="layer"
     id="layer3"
     inkscape:label="Layer 3">
    <rect
       id="rect3866"
       width="1628.2083"
       height="17.083702"
       x="161.63811"
       y="345.86163"
       style="opacity:1;fill:#ff5757;fill-opacity:1;stroke:none;stroke-opacity:1" />
  </g>
  <g
     inkscape:groupmode="layer"
     id="layer2"
     inkscape:label="Layer 2">
    <text
       xml:space="preserve"
       style="font-style:normal;font-weight:normal;font-size:65.18637848px;line-height:1.25;font-family:sans-serif;letter-spacing:0px;word-spacing:0px;fill:#000000;fill-opacity:1;stroke:none;stroke-width:1.62965953"
       x="615.24878"
       y="649.98248"
       id="text154"><tspan
         sodipodi:role="line"
         id="tspan152"
         x="615.24878"
         y="649.98248"
         style="font-style:normal;font-variant:normal;font-weight:normal;font-stretch:normal;font-size:312.8946228px;font-family:'Text Me One';-inkscape-font-specification:'Text Me One';stroke-width:1.62965953">RACK</tspan></text>
    <rect
       style="opacity:1;fill:none;fill-opacity:1;stroke:none;stroke-opacity:1"
       id="rect4705"
       width="10.184515"
       height="0.98560178"
       x="803.91962"
       y="366.09833" />
    <g
       id="g1388"
       style="fill:none;fill-opacity:1">
      <g
         id="g1359"
         style="fill:none;fill-opacity:1">
        <path
           sodipodi:nodetypes="ssssssssssssscsssssscs"
           inkscape:connector-curvature="0"
           d="m 860.82325,439.53927 c -4.1509,0.0575 -12.57778,0.0136 -12.5005,-1.2927 0.17568,-2.96958 0.42773,-7.4649 0.50175,-9.99178 0.18483,-6.30973 0.32635,-11.15448 1.8312,-15.00456 3.03761,-7.77159 5.92639,-13.49407 10.21912,-17.39883 3.61727,-3.29034 8.38656,-10.77312 12.25511,-16.36391 4.45209,-6.43411 6.4279,-15.64933 6.67111,-17.2199 1.07401,-6.93552 -0.59179,-9.75663 -2.61898,-13.84737 -1.55146,-3.13078 -9.28816,-6.80704 -12.58505,-9.35072 -8.51642,-6.57076 -27.21289,-1.6714 -29.55895,-0.90538 -6.09981,1.99167 -7.34291,5.55509 -10.6964,7.3278 -4.89195,2.58595 -4.26566,17.36179 -2.52186,20.64063 1.40918,2.64967 -12.91714,3.03387 -13.36737,1.75645 -6.15834,-17.47254 10.31357,-36.28295 17.89676,-39.10922 9.06022,-4.64826 10.03079,-5.33429 21.25609,-6.13895 10.83249,-0.7765 23.92874,6.0939 33.23147,11.69793 3.48104,2.097 9.32794,8.84702 12.63733,13.21045 2.62055,3.4552 -0.7943,16.08923 -2.37246,22.02641 -3.11738,11.72784 -6.98719,14.56501 -16.82914,29.07301 -1.32858,1.95847 -3.70996,6.01534 -5.7578,9.44549 -1.77748,2.9773 -2.14647,23.53632 -3.07588,30.23117 0,0 -3.26119,1.19523 -4.61555,1.21398 z"
           style="fill:none;fill-opacity:1;stroke:#000000;stroke-width:1px;stroke-linecap:butt;stroke-linejoin:miter;stroke-opacity:1"
           id="path4709" />
      </g>
    </g>
  </g>
</svg>
