<?xml version="1.0" encoding="UTF-8" standalone="no"?>
<!-- Created with Inkscape (http://www.inkscape.org/) -->

<svg
   xmlns:dc="http://purl.org/dc/elements/1.1/"
   xmlns:cc="http://creativecommons.org/ns#"
   xmlns:rdf="http://www.w3.org/1999/02/22-rdf-syntax-ns#"
   xmlns:svg="http://www.w3.org/2000/svg"
   xmlns="http://www.w3.org/2000/svg"
   xmlns:sodipodi="http://sodipodi.sourceforge.net/DTD/sodipodi-0.dtd"
   xmlns:inkscape="http://www.inkscape.org/namespaces/inkscape"
   width="1920px"
   height="1080px"
   viewBox="0 0 1920 1080"
   version="1.1"
   id="SVGRoot"
   inkscape:version="0.92.4 (5da689c313, 2019-01-14)"
   sodipodi:docname="rack-logo-5.svg">
  <defs
     id="defs138">
    <inkscape:path-effect
       effect="spiro"
       id="path-effect4703"
       is_visible="true" />
    <inkscape:path-effect
       effect="spiro"
       id="path-effect4699"
       is_visible="true" />
  </defs>
  <sodipodi:namedview
     id="base"
     pagecolor="#ffffff"
     bordercolor="#666666"
     borderopacity="1.0"
     inkscape:pageopacity="0.0"
     inkscape:pageshadow="2"
     inkscape:zoom="0.63446244"
     inkscape:cx="875.3888"
     inkscape:cy="600.59349"
     inkscape:document-units="px"
     inkscape:current-layer="layer3"
     showgrid="false"
     inkscape:window-width="1920"
     inkscape:window-height="1057"
     inkscape:window-x="-8"
     inkscape:window-y="-8"
     inkscape:window-maximized="1"
     inkscape:snap-intersection-paths="false" />
  <metadata
     id="metadata141">
    <rdf:RDF>
      <cc:Work
         rdf:about="">
        <dc:format>image/svg+xml</dc:format>
        <dc:type
           rdf:resource="http://purl.org/dc/dcmitype/StillImage" />
        <dc:title></dc:title>
      </cc:Work>
    </rdf:RDF>
  </metadata>
  <g
     inkscape:label="Layer 1"
     inkscape:groupmode="layer"
     id="layer1" />
  <g
     inkscape:groupmode="layer"
     id="layer3"
     inkscape:label="Layer 3"
     style="display:inline" />
  <g
     inkscape:groupmode="layer"
     id="layer2"
     inkscape:label="Layer 2">
    <text
       xml:space="preserve"
       style="font-style:normal;font-weight:normal;font-size:154.7414093px;line-height:1.25;font-family:sans-serif;letter-spacing:0px;word-spacing:0px;fill:#000000;fill-opacity:1;stroke:none;stroke-width:3.86853576"
       x="175.50595"
       y="840.99835"
       id="text154"><tspan
         sodipodi:role="line"
         id="tspan152"
         x="175.50595"
         y="840.99835"
         style="font-style:normal;font-variant:normal;font-weight:normal;font-stretch:normal;font-size:742.7588501px;font-family:'Text Me One';-inkscape-font-specification:'Text Me One';stroke-width:3.86853576">RACK</tspan></text>
    <path
       style="fill:#000000;fill-opacity:1;stroke:#000000;stroke-width:2.37383056px;stroke-linecap:butt;stroke-linejoin:miter;stroke-opacity:1"
       d="m 780.27601,403.43794 c 0,0 -3.50157,-27.94652 -3.36014,-72.35107 0.0867,-27.21212 15.70687,-38.6844 27.06489,-56.04499 15.04704,-22.99932 43.21723,-44.46698 53.67143,-62.59263 10.4543,-18.12565 20.0716,-46.55716 16.1643,-70.27367 -4.5388,-27.5481 -22.2362,-50.125062 -43.96943,-71.289292 -21.73341,-21.16425 -51.98705,-21.63721 -78.36333,-21.73216 -26.37642,-0.0949 -53.92246,8.82303 -72.14254,20.57819 -18.22007,11.75517 -29.7107,31.588832 -34.09267,51.785832 -4.09283,18.86436 -11.33791,58.68778 8.93524,57.21622 24.18027,-1.75516 19.34559,-12.26404 19.50651,-33.67684 0.0984,-13.11789 4.63407,-22.82208 25.02982,-43.35619 19.2228,-19.353302 52.79518,-20.496732 52.79518,-20.496732 13.76247,-1.531 27.46645,-0.10581 41.08328,6.15628 13.6167,6.26219 28.49799,18.584832 36.58697,31.661272 8.08897,13.07643 12.37207,26.60346 10.87587,42.50298 -1.4962,15.89952 -26.12323,47.53615 -35.26753,60.26708 -9.14445,12.73092 -26.6255,25.51549 -38.36168,39.68441 -9.61329,11.60607 -14.37432,19.9274 -26.08777,36.92534 -11.71344,16.99793 -18.50983,42.97568 -18.50983,42.97568 0,0 45.38401,48.24496 58.44143,62.06029 z"
       id="path4697"
       inkscape:connector-curvature="0"
       sodipodi:nodetypes="ssazazzzasssszzccazcs" />
    <rect
       style="opacity:1;fill:none;fill-opacity:1;stroke:none;stroke-width:2.37383056;stroke-opacity:1"
       id="rect4705"
       width="24.176313"
       height="2.3396516"
       x="623.3786"
       y="167.10548" />
  </g>
</svg>
