<?xml version="1.0" encoding="UTF-8" standalone="no"?>
<!-- Created with Inkscape (http://www.inkscape.org/) -->

<svg
   xmlns:dc="http://purl.org/dc/elements/1.1/"
   xmlns:cc="http://creativecommons.org/ns#"
   xmlns:rdf="http://www.w3.org/1999/02/22-rdf-syntax-ns#"
   xmlns:svg="http://www.w3.org/2000/svg"
   xmlns="http://www.w3.org/2000/svg"
   xmlns:sodipodi="http://sodipodi.sourceforge.net/DTD/sodipodi-0.dtd"
   xmlns:inkscape="http://www.inkscape.org/namespaces/inkscape"
   width="210mm"
   height="297mm"
   viewBox="0 0 210 297"
   version="1.1"
   id="svg3767"
   inkscape:version="0.92.4 (5da689c313, 2019-01-14)"
   sodipodi:docname="coat-icon-2.svg">
  <defs
     id="defs3761" />
  <sodipodi:namedview
     id="base"
     pagecolor="#ffffff"
     bordercolor="#666666"
     borderopacity="1.0"
     inkscape:pageopacity="0.0"
     inkscape:pageshadow="2"
     inkscape:zoom="0.35"
     inkscape:cx="292.64141"
     inkscape:cy="560"
     inkscape:document-units="mm"
     inkscape:current-layer="layer1"
     showgrid="false"
     inkscape:window-width="1366"
     inkscape:window-height="745"
     inkscape:window-x="1912"
     inkscape:window-y="578"
     inkscape:window-maximized="1" />
  <metadata
     id="metadata3764">
    <rdf:RDF>
      <cc:Work
         rdf:about="">
        <dc:format>image/svg+xml</dc:format>
        <dc:type
           rdf:resource="http://purl.org/dc/dcmitype/StillImage" />
        <dc:title />
      </cc:Work>
    </rdf:RDF>
  </metadata>
  <g
     inkscape:label="Layer 1"
     inkscape:groupmode="layer"
     id="layer1">
    <path
       style="stroke-width:0.3315199"
       inkscape:connector-curvature="0"
       id="path3753"
       d="m 149.42315,204.66797 c -38.69901,0 -77.43038,-0.0339 -116.12946,0.0339 -10.14317,0.0339 -18.08972,-3.98071 -22.67675,-13.74539 -6.1698905,-13.201 0.22612,-28.54546 13.76111,-33.24068 30.33257,-10.51318 60.72975,-20.95828 91.09464,-31.43746 8.10808,-2.78989 16.18381,-5.64784 24.32417,-8.30165 2.19659,-0.71449 2.93957,-1.76921 2.93957,-4.18488 0,-6.66854 2.42271,-12.35045 7.00976,-17.045602 2.81035,-2.89198 5.62072,-5.78396 8.10805,-8.94812 4.2317,-5.341652 4.65165,-12.112288 1.38903,-17.760135 -3.10108,-5.375661 -9.30326,-8.471757 -14.85939,-7.383025 -6.68671,1.3269 -11.17683,6.192212 -12.24284,13.269045 -0.12924,0.850587 -0.25842,1.735187 -0.35533,2.585764 -0.61374,4.831309 -3.97325,8.029491 -8.07573,7.689261 -4.32862,-0.34024 -7.42972,-4.116802 -7.3651,-8.948112 0.22611,-16.024925 11.43528,-28.749532 27.45756,-31.063098 13.69647,-1.973338 28.13595,8.23357 31.91538,22.931539 2.97192,11.567919 0.58148,22.013031 -7.23585,30.859071 l -7.00976,7.451082 c -1.03371,1.15678 -2.06742,2.48369 -2.64887,3.91267 -1.71207,4.2529 -0.90449,5.92005 3.23032,7.34903 l 111.67169,38.41222 c 10.82152,3.70851 17.44363,12.79272 17.21752,23.78222 -0.22612,10.92144 -7.13899,20.24382 -17.24984,22.8636 -2.71346,0.7145 -5.65304,0.81657 -8.46341,0.81657 -38.63445,0.10207 -77.23662,0.10207 -115.80647,0.10207 z m -0.12924,-16.56928 h 116.0972 c 1.19522,0 2.39043,0.0681 3.55332,-0.0682 3.29494,-0.44228 5.36234,-2.38164 6.1053,-5.81796 0.96911,-4.45704 -1.13062,-7.58719 -6.46061,-9.42443 -38.24684,-13.20104 -76.46135,-26.29997 -114.67587,-39.53498 -2.97188,-1.02071 -5.55611,-1.08875 -8.56031,-0.0339 -25.26094,8.81202 -50.58654,17.41989 -75.87985,26.12984 -13.14734,4.52509 -26.32699,9.05017 -39.44203,13.64331 -4.61935,1.59909 -6.78364,5.10348 -5.91147,9.2203 0.77528,3.84464 3.77946,5.85199 8.72184,5.85199 38.79597,0.034 77.62426,0.034 116.45248,0.034 z" />
  </g>
</svg>
